{
  "accessors": [
    {
      "bufferView": 2,
      "componentType": 5126,
      "count": 1508,
      "max": [
        1.7923749685287476,
        2.132219076156616,
        -1.7795350551605225
      ],
      "min": [
        -1.6615070104599,
        1.4098960161209106,
        -3.020503044128418
      ],
      "type": "VEC3"
    },
    {
      "bufferView": 2,
      "byteOffset": 18096,
      "componentType": 5126,
      "count": 1508,
      "max": [
        0.9993837475776672,
        0.9994297623634338,
        0.9908015727996826
      ],
      "min": [
        -0.9990703463554382,
        -0.9982866644859314,
        -0.9992112517356873
      ],
      "type": "VEC3"
    },
    {
      "bufferView": 3,
      "componentType": 5126,
      "count": 1508,
      "max": [
        0.9703795909881592,
        0.9998292922973633,
        0.9716693758964539,
        1.0
      ],
      "min": [
        -0.9618896245956421,
        -0.9998859763145447,
        -0.9997770190238953,
        -1.0
      ],
      "type": "VEC4"
    },
    {
      "bufferView": 1,
      "componentType": 5126,
      "count": 1508,
      "max": [
        0.5060970187187195,
        0.504485011100769
      ],
      "min": [
        0.011823000386357307,
        0.010211000218987465
      ],
      "type": "VEC2"
    },
    {
      "bufferView": 0,
      "componentType": 5125,
      "count": 4872,
      "type": "SCALAR"
    },
    {
      "bufferView": 2,
      "byteOffset": 36192,
      "componentType": 5126,
      "count": 458,
      "max": [
        1.9992460012435913,
        2.5934510231018066,
        3.3000009059906006
      ],
      "min": [
        -1.9992460012435913,
        1.2009589672088623,
        -3.3000009059906006
      ],
      "type": "VEC3"
    },
    {
      "bufferView": 2,
      "byteOffset": 41688,
      "componentType": 5126,
      "count": 458,
      "max": [
        1.0,
        1.0,
        1.0
      ],
      "min": [
        -1.0,
        0.0,
        -1.0
      ],
      "type": "VEC3"
    },
    {
      "bufferView": 3,
      "byteOffset": 24128,
      "componentType": 5126,
      "count": 458,
      "max": [
        0.7382863759994507,
        1.0,
        0.9129939675331116,
        1.0
      ],
      "min": [
        -1.0,
        -1.0,
        -1.0,
        1.0
      ],
      "type": "VEC4"
    },
    {
      "bufferView": 1,
      "byteOffset": 12064,
      "componentType": 5126,
      "count": 458,
      "max": [
        0.8931189775466919,
        0.4738740026950836
      ],
      "min": [
        0.5183349847793579,
        0.012476000003516674
      ],
      "type": "VEC2"
    },
    {
      "bufferView": 0,
      "byteOffset": 19488,
      "componentType": 5125,
      "count": 1704,
      "type": "SCALAR"
    },
    {
      "bufferView": 2,
      "byteOffset": 47184,
      "componentType": 5126,
      "count": 1202,
      "max": [
        2.0,
        1.8362109661102295,
        3.3000009059906006
      ],
      "min": [
        -2.0,
        -0.002937000012025237,
        -3.3000009059906006
      ],
      "type": "VEC3"
    },
    {
      "bufferView": 2,
      "byteOffset": 61608,
      "componentType": 5126,
      "count": 1202,
      "max": [
        1.0,
        1.0,
        1.0
      ],
      "min": [
        -1.0,
        -1.0,
        -1.0
      ],
      "type": "VEC3"
    },
    {
      "bufferView": 3,
      "byteOffset": 31456,
      "componentType": 5126,
      "count": 1202,
      "max": [
        1.0,
        1.0,
        1.0,
        1.0
      ],
      "min": [
        -1.0,
        -1.0,
        -1.0,
        -1.0
      ],
      "type": "VEC4"
    },
    {
      "bufferView": 1,
      "byteOffset": 15728,
      "componentType": 5126,
      "count": 1202,
      "max": [
        0.9816650152206421,
        0.47580501437187195
      ],
      "min": [
        0.5183349847793579,
        0.012476000003516674
      ],
      "type": "VEC2"
    },
    {
      "bufferView": 0,
      "byteOffset": 26304,
      "componentType": 5125,
      "count": 5064,
      "type": "SCALAR"
    },
    {
      "bufferView": 2,
      "byteOffset": 76032,
      "componentType": 5126,
      "count": 1225,
      "max": [
        2.23288893699646,
        1.6789740324020386,
        3.128514051437378
      ],
      "min": [
        -2.3625540733337402,
        0.0521869994699955,
        -1.935925006866455
      ],
      "type": "VEC3"
    },
    {
      "bufferView": 2,
      "byteOffset": 90732,
      "componentType": 5126,
      "count": 1225,
      "max": [
        0.9999400973320007,
        0.999999463558197,
        0.999995768070221
      ],
      "min": [
        -0.9999565482139587,
        -0.9999120235443115,
        -0.9988754987716675
      ],
      "type": "VEC3"
    },
    {
      "bufferView": 3,
      "byteOffset": 50688,
      "componentType": 5126,
      "count": 1225,
      "max": [
        0.999998927116394,
        0.9999908804893494,
        0.9999239444732666,
        1.0
      ],
      "min": [
        -0.9915737509727478,
        -0.9998021721839905,
        -0.9983773827552795,
        -1.0
      ],
      "type": "VEC4"
    },
    {
      "bufferView": 1,
      "byteOffset": 25344,
      "componentType": 5126,
      "count": 1225,
      "max": [
        0.980351984500885,
        0.9938399791717529
      ],
      "min": [
        0.4826889932155609,
        0.49617600440979004
      ],
      "type": "VEC2"
    },
    {
      "bufferView": 0,
      "byteOffset": 46560,
      "componentType": 5125,
      "count": 5541,
      "type": "SCALAR"
    },
    {
      "bufferView": 2,
      "byteOffset": 105432,
      "componentType": 5126,
      "count": 22,
      "max": [
        1.9097440242767334,
        1.4760099649429321,
        2.9255239963531494
      ],
      "min": [
        -1.9097440242767334,
        1.0993319749832153,
        -2.9255239963531494
      ],
      "type": "VEC3"
    },
    {
      "bufferView": 2,
      "byteOffset": 105696,
      "componentType": 5126,
      "count": 22,
      "max": [
        0.5773503184318542,
        0.5773503184318542,
        0.5773503184318542
      ],
      "min": [
        -0.5773503184318542,
        -0.5773503184318542,
        -0.5773503184318542
      ],
      "type": "VEC3"
    },
    {
      "bufferView": 3,
      "byteOffset": 70288,
      "componentType": 5126,
      "count": 22,
      "max": [
        0.8164966106414795,
        0.8164966702461243,
        0.40824833512306213,
        1.0
      ],
      "min": [
        -0.40824833512306213,
        -0.8164966702461243,
        -0.40824833512306213,
        1.0
      ],
      "type": "VEC4"
    },
    {
      "bufferView": 1,
      "byteOffset": 35144,
      "componentType": 5126,
      "count": 22,
      "max": [
        0.4386790096759796,
        0.950206995010376
      ],
      "min": [
        0.021206999197602272,
        0.5327349901199341
      ],
      "type": "VEC2"
    },
    {
      "bufferView": 0,
      "byteOffset": 68724,
      "componentType": 5125,
      "count": 36,
      "type": "SCALAR"
    }
  ],
  "asset": {
    "extras": {
      "author": "rerwandi (https://sketchfab.com/rerwandi)",
      "license": "CC-BY-4.0 (http://creativecommons.org/licenses/by/4.0/)",
      "source": "https://sketchfab.com/3d-models/bed-352f853f03194e9dac551e2c8afe7d1a",
      "title": "Bed"
    },
    "generator": "Sketchfab-12.68.0",
    "version": "2.0"
  },
  "bufferViews": [
    {
      "buffer": 0,
      "byteLength": 68868,
      "name": "floatBufferViews",
      "target": 34963
    },
    {
      "buffer": 0,
      "byteLength": 35320,
      "byteOffset": 68868,
      "byteStride": 8,
      "name": "floatBufferViews",
      "target": 34962
    },
    {
      "buffer": 0,
      "byteLength": 105960,
      "byteOffset": 104188,
      "byteStride": 12,
      "name": "floatBufferViews",
      "target": 34962
    },
    {
      "buffer": 0,
      "byteLength": 70640,
      "byteOffset": 210148,
      "byteStride": 16,
      "name": "floatBufferViews",
      "target": 34962
    }
  ],
  "buffers": [
    {
      "byteLength": 280788,
      "uri": "scene.bin"
    }
  ],
  "images": [
    {
      "uri": "textures/Pillow_baseColor.jpeg"
    },
    {
      "uri": "textures/Pillow_metallicRoughness.png"
    },
    {
      "uri": "textures/Pillow_normal.png"
    },
    {
      "uri": "textures/Brown_Wood_baseColor.jpeg"
    },
    {
      "uri": "textures/Brown_Wood_metallicRoughness.png"
    },
    {
      "uri": "textures/Brown_Wood_normal.png"
    },
    {
      "uri": "textures/Blue_Wood_baseColor.jpeg"
    },
    {
      "uri": "textures/Blue_Wood_metallicRoughness.png"
    },
    {
      "uri": "textures/Blue_Wood_normal.png"
    },
    {
      "uri": "textures/Blanket_baseColor.jpeg"
    },
    {
      "uri": "textures/Blanket_metallicRoughness.png"
    },
    {
      "uri": "textures/Blanket_normal.png"
    },
    {
      "uri": "textures/Matress_baseColor.jpeg"
    },
    {
      "uri": "textures/Matress_metallicRoughness.png"
    },
    {
      "uri": "textures/Matress_normal.png"
    }
  ],
  "materials": [
    {
      "doubleSided": true,
      "name": "Pillow",
      "normalTexture": {
        "index": 2
      },
      "occlusionTexture": {
        "index": 1
      },
      "pbrMetallicRoughness": {
        "baseColorTexture": {
          "index": 0
        },
        "metallicRoughnessTexture": {
          "index": 1
        }
      }
    },
    {
      "doubleSided": true,
      "name": "Brown_Wood",
      "normalTexture": {
        "index": 5
      },
      "occlusionTexture": {
        "index": 4
      },
      "pbrMetallicRoughness": {
        "baseColorTexture": {
          "index": 3
        },
        "metallicRoughnessTexture": {
          "index": 4
        }
      }
    },
    {
      "doubleSided": true,
      "name": "Blue_Wood",
      "normalTexture": {
        "index": 8
      },
      "occlusionTexture": {
        "index": 7
      },
      "pbrMetallicRoughness": {
        "baseColorTexture": {
          "index": 6
        },
        "metallicRoughnessTexture": {
          "index": 7
        }
      }
    },
    {
      "doubleSided": true,
      "name": "Blanket",
      "normalTexture": {
        "index": 11
      },
      "occlusionTexture": {
        "index": 10
      },
      "pbrMetallicRoughness": {
        "baseColorTexture": {
          "index": 9
        },
        "metallicRoughnessTexture": {
          "index": 10
        }
      }
    },
    {
      "doubleSided": true,
      "name": "Matress",
      "normalTexture": {
        "index": 14
      },
      "occlusionTexture": {
        "index": 13
      },
      "pbrMetallicRoughness": {
        "baseColorTexture": {
          "index": 12
        },
        "metallicRoughnessTexture": {
          "index": 13
        }
      }
    }
  ],
  "meshes": [
    {
      "name": "defaultMaterial",
      "primitives": [
        {
          "attributes": {
            "NORMAL": 1,
            "POSITION": 0,
            "TANGENT": 2,
            "TEXCOORD_0": 3
          },
          "indices": 4,
          "material": 0,
          "mode": 4
        }
      ]
    },
    {
      "name": "defaultMaterial",
      "primitives": [
        {
          "attributes": {
            "NORMAL": 6,
            "POSITION": 5,
            "TANGENT": 7,
            "TEXCOORD_0": 8
          },
          "indices": 9,
          "material": 1,
          "mode": 4
        }
      ]
    },
    {
      "name": "defaultMaterial",
      "primitives": [
        {
          "attributes": {
            "NORMAL": 11,
            "POSITION": 10,
            "TANGENT": 12,
            "TEXCOORD_0": 13
          },
          "indices": 14,
          "material": 2,
          "mode": 4
        }
      ]
    },
    {
      "name": "defaultMaterial",
      "primitives": [
        {
          "attributes": {
            "NORMAL": 16,
            "POSITION": 15,
            "TANGENT": 17,
            "TEXCOORD_0": 18
          },
          "indices": 19,
          "material": 3,
          "mode": 4
        }
      ]
    },
    {
      "name": "defaultMaterial",
      "primitives": [
        {
          "attributes": {
            "NORMAL": 21,
            "POSITION": 20,
            "TANGENT": 22,
            "TEXCOORD_0": 23
          },
          "indices": 24,
          "material": 4,
          "mode": 4
        }
      ]
    }
  ],
  "nodes": [
    {
      "children": [
        1
      ],
      "matrix": [
        1.0,
        0.0,
        0.0,
        0.0,
        0.0,
        2.220446049250313e-16,
        -1.0,
        0.0,
        0.0,
        1.0,
        2.220446049250313e-16,
        0.0,
        0.0,
        0.0,
        0.0,
        1.0
      ],
      "name": "Sketchfab_model"
    },
    {
      "children": [
        2
      ],
      "matrix": [
        1.0,
        0.0,
        0.0,
        0.0,
        0.0,
        -4.371139006309477e-08,
        0.999999999999999,
        0.0,
        0.0,
        -0.999999999999999,
        -4.371139006309477e-08,
        0.0,
        0.0,
        0.0,
        0.0,
        1.0
      ],
      "name": "Collada visual scene group"
    },
    {
      "children": [
        3,
        4,
        5,
        6,
        7
      ],
      "name": "Bed"
    },
    {
      "mesh": 0,
      "name": "defaultMaterial"
    },
    {
      "mesh": 1,
      "name": "defaultMaterial"
    },
    {
      "mesh": 2,
      "name": "defaultMaterial"
    },
    {
      "mesh": 3,
      "name": "defaultMaterial"
    },
    {
      "mesh": 4,
      "name": "defaultMaterial"
    }
  ],
  "samplers": [
    {
      "magFilter": 9729,
      "minFilter": 9987,
      "wrapS": 10497,
      "wrapT": 10497
    }
  ],
  "scene": 0,
  "scenes": [
    {
      "name": "Sketchfab_Scene",
      "nodes": [
        0
      ]
    }
  ],
  "textures": [
    {
      "sampler": 0,
      "source": 0
    },
    {
      "sampler": 0,
      "source": 1
    },
    {
      "sampler": 0,
      "source": 2
    },
    {
      "sampler": 0,
      "source": 3
    },
    {
      "sampler": 0,
      "source": 4
    },
    {
      "sampler": 0,
      "source": 5
    },
    {
      "sampler": 0,
      "source": 6
    },
    {
      "sampler": 0,
      "source": 7
    },
    {
      "sampler": 0,
      "source": 8
    },
    {
      "sampler": 0,
      "source": 9
    },
    {
      "sampler": 0,
      "source": 10
    },
    {
      "sampler": 0,
      "source": 11
    },
    {
      "sampler": 0,
      "source": 12
    },
    {
      "sampler": 0,
      "source": 13
    },
    {
      "sampler": 0,
      "source": 14
    }
  ]
}
